<?xml version="1.0" encoding="UTF-8" standalone="no"?>
<!-- Created with Inkscape (http://www.inkscape.org/) -->

<svg
   width="13mm"
   height="24mm"
   viewBox="0 0 13 24"
   version="1.1"
   id="svg5"
   xml:space="preserve"
   sodipodi:docname="terr.svg"
   inkscape:version="1.2.1 (9c6d41e410, 2022-07-14)"
   xmlns:inkscape="http://www.inkscape.org/namespaces/inkscape"
   xmlns:sodipodi="http://sodipodi.sourceforge.net/DTD/sodipodi-0.dtd"
   xmlns:xlink="http://www.w3.org/1999/xlink"
   xmlns="http://www.w3.org/2000/svg"
   xmlns:svg="http://www.w3.org/2000/svg"><sodipodi:namedview
     id="namedview7"
     pagecolor="#505050"
     bordercolor="#eeeeee"
     borderopacity="1"
     inkscape:showpageshadow="true"
     inkscape:pageopacity="0"
     inkscape:pagecheckerboard="0"
     inkscape:deskcolor="#505050"
     inkscape:document-units="mm"
     showgrid="false"
     inkscape:zoom="4.1020924"
     inkscape:cx="68.623515"
     inkscape:cy="97.145545"
     inkscape:window-width="1920"
     inkscape:window-height="1001"
     inkscape:window-x="-9"
     inkscape:window-y="-9"
     inkscape:window-maximized="1"
     inkscape:current-layer="layer1" /><defs
     id="defs2"><linearGradient
       inkscape:collect="always"
       id="linearGradient3377"><stop
         style="stop-color:#27650a;stop-opacity:1;"
         offset="0"
         id="stop3373" /><stop
         style="stop-color:#1e4d08;stop-opacity:1;"
         offset="1"
         id="stop3375" /></linearGradient><linearGradient
       inkscape:collect="always"
       id="linearGradient1056"><stop
         style="stop-color:#946955;stop-opacity:1;"
         offset="0"
         id="stop1052" /><stop
         style="stop-color:#634921;stop-opacity:1;"
         offset="1"
         id="stop1054" /></linearGradient><inkscape:perspective
       sodipodi:type="inkscape:persp3d"
       inkscape:vp_x="-101.65143 : 24.881051 : 1"
       inkscape:vp_y="0 : 999.99992 : 0"
       inkscape:vp_z="108.34875 : 24.881051 : 1"
       inkscape:persp3d-origin="3.3486224 : -24.618939 : 1"
       id="perspective1059" /><inkscape:perspective
       sodipodi:type="inkscape:persp3d"
       inkscape:vp_x="67.555599 : -125.45393 : 1"
       inkscape:vp_y="0 : 264.5833 : 0"
       inkscape:vp_z="123.1182 : -125.45393 : 1"
       inkscape:persp3d-origin="95.336856 : -138.5508 : 1"
       id="perspective1059-6" /><linearGradient
       inkscape:collect="always"
       xlink:href="#linearGradient1056"
       id="linearGradient1058"
       x1="26.444838"
       y1="24.25185"
       x2="26.444838"
       y2="40.763748"
       gradientUnits="userSpaceOnUse"
       gradientTransform="translate(-19.285381,-13.157919)" /><radialGradient
       inkscape:collect="always"
       xlink:href="#linearGradient3377"
       id="radialGradient3379"
       cx="24.353231"
       cy="-17.906656"
       fx="24.353231"
       fy="-17.906656"
       r="5.1451797"
       gradientTransform="matrix(1,0,0,1.1649677,0,2.9540194)"
       gradientUnits="userSpaceOnUse" /><radialGradient
       inkscape:collect="always"
       xlink:href="#linearGradient3377"
       id="radialGradient3379-2"
       cx="23.994867"
       cy="-17.580423"
       fx="23.994867"
       fy="-17.580423"
       r="5.1451797"
       gradientTransform="matrix(0.26422821,0.34372074,-1.2676377,0.38048252,9.1849183,-20.209576)"
       gradientUnits="userSpaceOnUse" /><radialGradient
       inkscape:collect="always"
       xlink:href="#linearGradient3377"
       id="radialGradient3379-2-9"
       cx="23.994867"
       cy="-17.580423"
       fx="23.994867"
       fy="-17.580423"
       r="5.1451797"
       gradientTransform="matrix(0.3817068,-0.11654335,-0.88056499,-1.1360122,7.2659723,-27.413995)"
       gradientUnits="userSpaceOnUse" /></defs><g
     inkscape:label="Слой 1"
     inkscape:groupmode="layer"
     id="layer1"><path
       id="rect373"
       style="fill:url(#linearGradient1058);fill-rule:evenodd;stroke-width:0.200006"
       d="m 10.885568,23.989268 -7.9815818,-0.04008 2.532871,-2.949881 0.01034,-3.487673 -3.610258,-3.095785 3.539709,1.408551 0.105821,-10.2129401 2.547733,0.0645 0.0095,13.1256671 3.5159558,-1.160674 -3.5103668,2.845242 -0.07957,0.669669"
       sodipodi:nodetypes="cccccccccccc" /><g
       id="path2580"
       transform="matrix(0.34143231,0.93990637,-0.97079679,0.23990331,-19.285381,-13.157919)"><path
         style="color:#000000;fill:url(#radialGradient3379);fill-opacity:1;stroke-width:0.641086;-inkscape-stroke:none"
         d="m 28.978477,-17.493624 c 0,0 0.687777,4.957519 -1.889664,4.262352 -0.412518,1.79823 -3.695278,1.710838 -5.005691,0.0205 -2.949149,-0.960273 -3.494162,-4.122289 -2.1485,-5.18959 -3.062505,-2.617666 4.475253,-7.220232 5.619843,-4.835966 2.274374,-0.173476 3.642235,2.415249 3.642235,2.415249"
         id="path3312"
         sodipodi:nodetypes="cccccc" /><path
         style="color:#000000;fill:url(#radialGradient3379-2);fill-opacity:1;stroke-width:0.252487;-inkscape-stroke:none"
         d="m 36.283865,-16.973801 c -1.034579,-0.203387 -1.181191,-1.908736 0.01087,-2.07518 -0.187824,-0.739263 0.641879,-0.897555 1.381281,-0.509166 1.150805,-0.17726 1.499164,0.186911 1.245777,0.824364 1.669045,0.495633 0.302792,2.236015 -1.056835,1.316933"
         id="path3312-8"
         sodipodi:nodetypes="ccccc" /><path
         style="color:#000000;fill:url(#radialGradient3379-2-9);fill-opacity:1;stroke-width:0.252487;-inkscape-stroke:none"
         d="m 32.029188,-12.741883 c -1.148318,-0.564345 -2.068892,1.03143 -1.151185,1.939888 -0.75689,0.699953 -0.184684,1.1628131 0.820387,1.1506212 0.57736,1.5520966 1.185264,0.9905159 1.363724,0.093406 1.626242,0.6633298 1.995908,-0.3645174 0.693567,-1.7768952"
         id="path3312-8-7"
         sodipodi:nodetypes="ccccc" /><path
         style="color:#000000;fill:#000000;fill-opacity:0;-inkscape-stroke:none"
         d="m 23.769531,-24.220703 c -2.148184,0.322932 -4.020454,2.082018 -4.626953,4.589844 -0.808664,3.343768 0.876681,6.827095 3.835938,7.779296 2.959256,0.952202 6.024214,-1.052321 6.83789,-4.394531 l -0.623047,-0.152343 c -0.741249,3.044711 -3.431103,4.768426 -6.019531,3.935546 -2.588428,-0.832879 -4.14491,-3.971351 -3.408203,-7.017578 0.736707,-3.046227 3.422128,-4.776938 6.011719,-3.949218 2.58959,0.827719 4.152083,3.965938 3.419922,7.013671 l 0.623046,0.148438 c 0.803651,-3.345317 -0.886901,-6.825128 -3.847656,-7.771484 -0.740188,-0.23659 -1.487063,-0.289285 -2.203125,-0.181641 z"
         id="path3314" /></g></g></svg>
